<?xml version="1.0" encoding="UTF-8"?>
<svg width="400" height="500" viewBox="0 0 400 500" fill="none" xmlns="http://www.w3.org/2000/svg">
  <!-- Phone Frame -->
  <rect x="100" y="50" width="200" height="400" rx="20" fill="#E0E0E0"/>
  <rect x="110" y="60" width="180" height="380" rx="15" fill="#FFFFFF"/>
  
  <!-- Screen Content -->
  <rect x="130" y="100" width="140" height="40" rx="8" fill="#4CAF50" opacity="0.2"/>
  <rect x="130" y="160" width="140" height="20" rx="4" fill="#E0E0E0"/>
  <rect x="130" y="190" width="140" height="20" rx="4" fill="#E0E0E0"/>
  <rect x="130" y="220" width="140" height="20" rx="4" fill="#E0E0E0"/>
  
  <!-- Form Elements -->
  <rect x="130" y="270" width="140" height="40" rx="8" fill="#4CAF50" opacity="0.1"/>
  <rect x="130" y="320" width="140" height="40" rx="8" fill="#4CAF50" opacity="0.1"/>
  
  <!-- Submit Button -->
  <rect x="150" y="380" width="100" height="35" rx="17.5" fill="#4CAF50"/>
  
  <!-- Decorative Elements -->
  <circle cx="200" cy="430" r="15" fill="#4CAF50" opacity="0.2"/>
  
  <!-- Plant Decoration -->
  <path d="M320 450 C320 400, 350 380, 380 400" stroke="#4CAF50" stroke-width="2"/>
  <path d="M320 450 C320 400, 290 380, 260 400" stroke="#4CAF50" stroke-width="2"/>
  <circle cx="320" cy="450" r="5" fill="#4CAF50"/>
</svg> 